<svg xmlns="http://www.w3.org/2000/svg" viewBox="0 0 45.8 38.24"><defs><style>.cls-1,.cls-2{fill:#afb0af;}.cls-2{stroke:#afb0af;stroke-miterlimit:10;stroke-width:0.15px;}</style></defs><g id="Layer_2" data-name="Layer 2"><path class="cls-1" d="M35.3,27.29h-9l.16-.62a2.63,2.63,0,0,0,.09-.7,3.05,3.05,0,1,0-6.1,0,2.64,2.64,0,0,0,.08.7l.16.62H16.62V11.35H35.71V24.08l-.1.13A3.08,3.08,0,0,0,35.06,26a2.64,2.64,0,0,0,.08.7Zm-7.79-1h6.56c0-.1,0-.21,0-.32a4,4,0,0,1,.65-2.2V12.35H17.62V26.29h1.82c0-.1,0-.21,0-.32a4.05,4.05,0,1,1,8.1,0C27.53,26.08,27.52,26.19,27.51,26.29Z"/><polygon class="cls-1" points="44.21 26.47 41.66 26.47 41.66 25.47 43.21 25.47 43.21 20.26 39.31 14.66 35.21 14.66 35.21 13.66 39.84 13.66 44.21 19.95 44.21 26.47"/><rect class="cls-1" x="6.63" y="16.47" width="8.83" height="1"/><rect class="cls-1" x="2.09" y="18.82" width="13.38" height="1"/><path class="cls-2" d="M20.6,23.1a4.05,4.05,0,0,1,5-.58,3.31,3.31,0,0,1,.74.58,4,4,0,1,1-5.72,0Zm5,5a3.06,3.06,0,0,0,0-4.32,3.12,3.12,0,0,0-.55-.44,3.05,3.05,0,0,0-4.21,4.19,3.28,3.28,0,0,0,.44.56A3.06,3.06,0,0,0,25.62,28.13Z"/><path class="cls-2" d="M35.15,23.1a4.05,4.05,0,0,1,5-.58,3.31,3.31,0,0,1,.74.58,4,4,0,1,1-5.72,0Zm5,5a3.06,3.06,0,0,0,0-4.32,3.12,3.12,0,0,0-.55-.44,3.05,3.05,0,0,0-4.21,4.19,3.28,3.28,0,0,0,.44.56A3.06,3.06,0,0,0,40.17,28.13Z"/></g></svg>